<svg xmlns="http://www.w3.org/2000/svg" version="1.1" xmlns:xlink="http://www.w3.org/1999/xlink" xmlns:svgjs="http://svgjs.dev/svgjs" width="150" height="135" viewBox="0 0 1500 935"><g transform="matrix(1,0,0,1,-0.9090909090909918,0.3785425101214628)"><svg viewBox="0 0 396 247" data-background-color="#ffffff" preserveAspectRatio="xMidYMid meet" height="935" width="1500" xmlns="http://www.w3.org/2000/svg" xmlns:xlink="http://www.w3.org/1999/xlink"><g id="tight-bounds" transform="matrix(1,0,0,1,0.2400000000000091,-0.09999999999999432)"><svg viewBox="0 0 395.52 247.2" height="247.2" width="395.52"><g><svg></svg></g><g><svg viewBox="0 0 395.52 247.2" height="247.2" width="395.52"><g transform="matrix(1,0,0,1,150.81467889908257,37.08)"><svg viewBox="0 0 93.89064220183486 173.04" height="173.04" width="93.89064220183486"><g><svg viewBox="0 0 93.89064220183486 173.04" height="173.04" width="93.89064220183486"><g><svg viewBox="0 0 93.89064220183486 173.04" height="173.04" width="93.89064220183486"><g><svg viewBox="0 0 93.89064220183486 173.04" height="173.04" width="93.89064220183486"><g id="textblocktransform"><svg viewBox="0 0 93.89064220183486 173.04" height="173.04" width="93.89064220183486" id="textblock"><g><svg viewBox="0 0 93.89064220183486 173.04" height="173.04" width="93.89064220183486"><g transform="matrix(1,0,0,1,0,0)"><svg width="93.89064220183486" viewBox="3.8 -38.15 20.7 38.15" height="173.04" data-palette-color="#ffa458"><path d="M7.75 0L3.8 0 3.8-38.15 7.75-38.15 7.75-16.05 11.55-16.05 19.7-26.7 23.9-26.7 14.5-14.25 24.5 0 20.3 0 11.4-12.5 7.75-12.5 7.75 0Z" opacity="1" transform="matrix(1,0,0,1,0,0)" fill="#ffa458" class="wordmark-text-0" data-fill-palette-color="primary" id="text-0"></path></svg></g></svg></g></svg></g></svg></g></svg></g></svg></g></svg></g><g><path d="M0 247.2v-247.2h395.52v247.2zM379.915 231.595v-215.99h-364.31v215.99z" fill="#ffa458" fill-rule="nonzero" stroke="none" stroke-width="1" stroke-linecap="butt" stroke-linejoin="miter" stroke-miterlimit="10" stroke-dasharray="" stroke-dashoffset="0" font-family="none" font-weight="none" font-size="none" text-anchor="none" style="mix-blend-mode: normal" data-fill-palette-color="tertiary"></path></g></svg></g><defs></defs></svg><rect width="395.52" height="247.2" fill="none" stroke="none" visibility="hidden"></rect></g></svg></g></svg>